<svg xmlns="http://www.w3.org/2000/svg" width="2708" height="2716" viewBox="0 0 2708 2716" version="1.1"><path d="M 1447 561.658 C 1383.374 566.025, 1331.431 578.971, 1274.859 604.564 C 1178.444 648.181, 1091.930 734.820, 1047.199 832.556 C 1010.027 913.773, 997.478 997.083, 1009.049 1085.818 C 1013.454 1119.596, 1023.721 1159.649, 1034.966 1186.917 C 1036.635 1190.964, 1038 1194.928, 1038 1195.726 C 1038 1198.200, 981.285 1259.301, 866.024 1381.003 C 856.386 1391.180, 835.901 1413.005, 820.501 1429.503 C 805.102 1446.001, 776.510 1476.375, 756.963 1497 C 737.416 1517.625, 679.392 1579.050, 628.021 1633.500 C 576.650 1687.950, 525.122 1742.400, 513.514 1754.500 C 501.905 1766.600, 481.789 1787.975, 468.810 1802 C 455.831 1816.025, 440.777 1832.193, 435.356 1837.929 L 425.500 1848.359 425.661 1941.757 C 425.749 1993.126, 426.138 2035.458, 426.524 2035.828 C 427.357 2036.625, 444.809 2018.713, 483.843 1977 C 499.540 1960.225, 560.121 1895.875, 618.466 1834 C 803.508 1637.765, 968.665 1461.890, 1111 1309.506 C 1176.105 1239.805, 1227.990 1184.617, 1331.485 1074.986 C 1363.943 1040.603, 1404.416 997.628, 1421.425 979.486 C 1438.434 961.344, 1453.850 944.902, 1455.683 942.949 L 1459.016 939.399 1456.519 932.056 C 1452.078 919, 1450.728 910.467, 1450.655 895 C 1450.553 873.155, 1454.316 857.018, 1464.079 837.435 C 1476.264 812.994, 1494.942 794.783, 1520.500 782.426 C 1543.254 771.423, 1568.674 767.626, 1594.004 771.445 C 1612.141 774.179, 1627.521 780.142, 1642.940 790.418 C 1666.536 806.144, 1682.603 826.760, 1691.857 853.186 C 1700.058 876.607, 1700.274 904.461, 1692.463 931.331 L 1690.109 939.427 1693.804 943.960 C 1695.837 946.453, 1713.475 964.705, 1733 984.520 C 1752.525 1004.335, 1779.501 1032.236, 1792.947 1046.523 C 1820.191 1075.471, 1860.017 1116, 1861.220 1116 C 1861.649 1116, 1862 1094.850, 1862 1069 L 1862 1022 1904 1022 L 1946 1022 1945.996 1018.250 C 1945.981 1004.892, 1942.004 965.066, 1938.881 947.010 C 1930.356 897.721, 1905.951 833.548, 1877.996 786.915 C 1860.297 757.390, 1831.387 721.336, 1803.869 694.472 C 1768.743 660.181, 1731.370 633.633, 1687 611.456 C 1629.044 582.487, 1570.716 566.471, 1507 562.030 C 1493.842 561.113, 1458.165 560.892, 1447 561.658 M 1553.552 954.278 C 1504.966 1005.820, 1383.341 1134.209, 1217.547 1308.973 C 997.468 1540.958, 955.988 1584.750, 939.035 1603.003 C 931.630 1610.976, 914.914 1628.525, 901.890 1642 C 888.865 1655.475, 874 1671.245, 868.855 1677.044 C 863.710 1682.843, 823.239 1726.043, 778.919 1773.044 C 734.599 1820.045, 638.386 1922.175, 565.112 2000 L 431.886 2141.500 436.693 2142.162 C 445.102 2143.321, 652.361 2143.119, 655.718 2141.948 C 658.771 2140.884, 669.915 2129.567, 723.613 2073 C 738.494 2057.325, 751.418 2043.882, 752.334 2043.128 C 753.854 2041.876, 754 2036.670, 754 1983.878 L 754 1926 807.275 1926 L 860.550 1926 867.614 1918.750 C 871.500 1914.763, 879.861 1905.650, 886.195 1898.500 C 892.528 1891.350, 899.800 1883.184, 902.355 1880.353 L 907 1875.206 907 1822.103 L 907 1769 957 1769 L 1007 1769 1007 1719 L 1007 1669 1053.250 1668.998 C 1095.353 1668.997, 1099.796 1668.840, 1102.806 1667.248 C 1104.625 1666.287, 1152.071 1616.900, 1208.243 1557.500 C 1402.126 1352.474, 1462.703 1288.316, 1510.858 1237 C 1560.016 1184.614, 1567.445 1176.956, 1572.782 1173.155 L 1575.790 1171.013 1655.696 1254.257 C 1725.916 1327.408, 1855.525 1462.834, 2002.860 1617 L 2049.211 1665.500 2058.855 1666.133 C 2064.160 1666.480, 2117.052 1666.818, 2176.394 1666.883 L 2284.288 1667 2264.394 1646.727 C 2253.452 1635.578, 2237.994 1619.490, 2230.043 1610.977 C 2222.091 1602.465, 2202.491 1581.775, 2186.486 1565 C 2153.770 1530.709, 2149.130 1525.728, 2139.674 1514.755 L 2133 1507.010 2133 1305.005 L 2133 1103 2048.156 1103 C 2001.491 1103, 1958.516 1102.707, 1952.656 1102.348 L 1942 1101.696 1941.877 1199.098 C 1941.810 1252.669, 1941.473 1301.191, 1941.127 1306.925 L 1940.500 1317.350 1851.950 1224.425 C 1751.907 1119.439, 1714.587 1080.114, 1685 1048.504 C 1673.725 1036.459, 1655.950 1017.670, 1645.500 1006.753 C 1600.658 959.904, 1587.592 946.087, 1581.725 939.315 C 1578.301 935.363, 1575.275 932.113, 1575 932.093 C 1574.725 932.073, 1565.073 942.056, 1553.552 954.278 M 1375 1669.860 C 1375 1711.034, 1374.714 1746.809, 1374.364 1749.360 L 1373.728 1754 1453.864 1754 L 1534 1754 1534 1674.500 L 1534 1595 1454.500 1595 L 1375 1595 1375 1669.860 M 1614.667 1595.667 C 1614.300 1596.033, 1614 1631.808, 1614 1675.167 L 1614 1754 1694 1754 L 1774 1754 1774 1674.500 L 1774 1595 1694.667 1595 C 1651.033 1595, 1615.033 1595.300, 1614.667 1595.667 M 1966 1844.702 L 1966 1993.711 1959.250 1994.348 C 1955.537 1994.699, 1912.338 1994.989, 1863.250 1994.993 L 1774 1995 1773.997 1934.250 C 1773.996 1900.838, 1773.704 1865.175, 1773.348 1855 L 1772.702 1836.500 1752.601 1836.500 C 1741.545 1836.500, 1706.136 1836.098, 1673.914 1835.607 L 1615.327 1834.714 1614.664 1857.519 C 1614.299 1870.061, 1614 1906.125, 1614 1937.662 L 1614 1995 1584.656 1995 C 1568.516 1995, 1550.516 1994.707, 1544.656 1994.348 L 1534 1993.696 1534 1915.498 L 1534 1837.300 1522.250 1836.669 C 1501.867 1835.574, 1403.108 1834.678, 1388.756 1835.457 L 1375.012 1836.204 1374.756 1915.352 L 1374.500 1994.500 1315 1994.813 C 1282.275 1994.985, 1239.188 1994.820, 1219.250 1994.447 L 1183 1993.767 1182.961 1845.633 L 1182.922 1697.500 1171.622 1709.127 C 1165.407 1715.522, 1150.729 1731.272, 1139.005 1744.127 C 1127.281 1756.982, 1109.767 1775.825, 1100.086 1786 C 1076.913 1810.354, 1064.036 1824.335, 1042.664 1848.344 L 1025 1868.187 1025 1930.938 L 1025 1993.688 1009.800 1994.346 C 1001.440 1994.708, 974.327 1994.710, 949.550 1994.351 L 904.500 1993.699 888.002 2011.600 C 878.928 2021.445, 861.152 2040.525, 848.500 2054 C 810.964 2093.976, 782.769 2124.989, 769.065 2141.372 C 767.536 2143.200, 783.180 2143.235, 1449.099 2142.872 L 2130.698 2142.500 2131.549 2105.500 C 2132.434 2067.022, 2132.472 2036.634, 2131.864 1856.750 L 2131.500 1749.001 2074.843 1749 L 2018.186 1749 1992.093 1722.347 L 1966 1695.694 1966 1844.702" stroke="none" fill="#1bc3b3" fill-rule="evenodd"/><path d="M 1309.500 123.034 C 645.034 123.542, 596.665 123.693, 585 125.289 C 517.292 134.553, 470.091 148.597, 414.500 176.019 C 383.268 191.425, 359.582 205.921, 333.003 225.896 C 228.068 304.759, 156.860 420.340, 134.528 548.050 C 133.132 556.036, 130.996 570.205, 129.781 579.536 L 127.574 596.500 127.235 1339 C 126.991 1874.603, 127.205 2086.098, 128.004 2098 C 133.152 2174.724, 153.191 2245.063, 187.973 2308.500 C 233.380 2391.314, 298.156 2458.534, 380.500 2508.292 C 396.224 2517.793, 436.974 2538.036, 453.500 2544.555 C 497.264 2561.818, 542.832 2573.127, 591.194 2578.727 C 605.714 2580.409, 644.975 2580.500, 1356 2580.500 C 2075.647 2580.500, 2106.137 2580.427, 2121.500 2578.671 C 2206.341 5601.973, 2282.017 2541.862, 2351.392 2496.313 C 2383.296 2475.366, 2408.328 2454.849, 2437.072 2426.085 C 2477.761 2385.367, 2506.934 2344.524, 2533.123 2291.611 C 2562.178 2232.906, 2578.696 2172.757, 2584.092 2106 C 2585.916 2083.440, 2586.002 616.024, 2584.181 596 C 2578.400 532.436, 2563.721 476.790, 2537.921 420.636 C 2498.279 334.355, 2433.142 259.481, 2351 205.771 C 2283.471 161.617, 2203.859 133.079, 2127.161 125.533 C 2108.030 123.650, 2061.574 121.949, 2038 122.266 C 2028.925 122.389, 1701.100 122.734, 1309.500 123.034 M 1447 561.658 C 1383.374 566.025, 1331.431 578.971, 1274.859 604.564 C 1178.444 648.181, 1091.930 734.820, 1047.199 832.556 C 1010.027 913.773, 997.478 997.083, 1009.049 1085.818 C 1013.454 1119.596, 1023.721 1159.649, 1034.966 1186.917 C 1036.635 1190.964, 1038 1194.928, 1038 1195.726 C 1038 1198.200, 981.285 1259.301, 866.024 1381.003 C 856.386 1391.180, 835.901 1413.005, 820.501 1429.503 C 805.102 1446.001, 776.510 1476.375, 756.963 1497 C 737.416 1517.625, 679.392 1579.050, 628.021 1633.500 C 576.650 1687.950, 525.122 1742.400, 513.514 1754.500 C 501.905 1766.600, 481.789 1787.975, 468.810 1802 C 455.831 1816.025, 440.777 1832.193, 435.356 1837.929 L 425.500 1848.359 425.661 1941.757 C 425.749 1993.126, 426.138 2035.458, 426.524 2035.828 C 427.357 2036.625, 444.809 2018.713, 483.843 1977 C 499.540 1960.225, 560.121 1895.875, 618.466 1834 C 803.508 1637.765, 968.665 1461.890, 1111 1309.506 C 1176.105 1239.805, 1227.990 1184.617, 1331.485 1074.986 C 1363.943 1040.603, 1404.416 997.628, 1421.425 979.486 C 1438.434 961.344, 1453.850 944.902, 1455.683 942.949 L 1459.016 939.399 1456.519 932.056 C 1452.078 919, 1450.728 910.467, 1450.655 895 C 1450.553 873.155, 1454.316 857.018, 1464.079 837.435 C 1476.264 812.994, 1494.942 794.783, 1520.500 782.426 C 1543.254 771.423, 1568.674 767.626, 1594.004 771.445 C 1612.141 774.179, 1627.521 780.142, 1642.940 790.418 C 1666.536 806.144, 1682.603 826.760, 1691.857 853.186 C 1700.058 876.607, 1700.274 904.461, 1692.463 931.331 L 1690.109 939.427 1693.804 943.960 C 1695.837 946.453, 1713.475 964.705, 1733 984.520 C 1752.525 1004.335, 1779.501 1032.236, 1792.947 1046.523 C 1820.191 1075.471, 1860.017 1116, 1861.220 1116 C 1861.649 1116, 1862 1094.850, 1862 1069 L 1862 1022 1904 1022 L 1946 1022 1945.996 1018.250 C 1945.981 1004.892, 1942.004 965.066, 1938.881 947.010 C 1930.356 897.721, 1905.951 833.548, 1877.996 786.915 C 1860.297 757.390, 1831.387 721.336, 1803.869 694.472 C 1768.743 660.181, 1731.370 633.633, 1687 611.456 C 1629.044 582.487, 1570.716 566.471, 1507 562.030 C 1493.842 561.113, 1458.165 560.892, 1447 561.658 M 1553.552 954.278 C 1504.966 1005.820, 1383.341 1134.209, 1217.547 1308.973 C 997.468 1540.958, 955.988 1584.750, 939.035 1603.003 C 931.630 1610.976, 914.914 1628.525, 901.890 1642 C 888.865 1655.475, 874 1671.245, 868.855 1677.044 C 863.710 1682.843, 823.239 1726.043, 778.919 1773.044 C 734.599 1820.045, 638.386 1922.175, 565.112 2000 L 431.886 2141.500 436.693 2142.162 C 445.102 2143.321, 652.361 2143.119, 655.718 2141.948 C 658.771 2140.884, 669.915 2129.567, 723.613 2073 C 738.494 2057.325, 751.418 2043.882, 752.334 2043.128 C 753.854 2041.876, 754 2036.670, 754 1983.878 L 754 1926 807.275 1926 L 860.550 1926 867.614 1918.750 C 871.500 1914.763, 879.861 1905.650, 886.195 1898.500 C 892.528 1891.350, 899.800 1883.184, 902.355 1880.353 L 907 1875.206 907 1822.103 L 907 1769 957 1769 L 1007 1769 1007 1719 L 1007 1669 1053.250 1668.998 C 1095.353 1668.997, 1099.796 1668.840, 1102.806 1667.248 C 1104.625 1666.287, 1152.071 1616.900, 1208.243 1557.500 C 1402.126 1352.474, 1462.703 1288.316, 1510.858 1237 C 1560.016 1184.614, 1567.445 1176.956, 1572.782 1173.155 L 1575.790 1171.013 1655.696 1254.257 C 1725.916 1327.408, 1855.525 1462.834, 2002.860 1617 L 2049.211 1665.500 2058.855 1666.133 C 2064.160 1666.480, 2117.052 1666.818, 2176.394 1666.883 L 2284.288 1667 2264.394 1646.727 C 2253.452 1635.578, 2237.994 1619.490, 2230.043 1610.977 C 2222.091 1602.465, 2202.491 1581.775, 2186.486 1565 C 2153.770 1530.709, 2149.130 1525.728, 2139.674 1514.755 L 2133 1507.010 2133 1305.005 L 2133 1103 2048.156 1103 C 2001.491 1103, 1958.516 1102.707, 1952.656 1102.348 L 1942 1101.696 1941.877 1199.098 C 1941.810 1252.669, 1941.473 1301.191, 1941.127 1306.925 L 1940.500 1317.350 1851.950 1224.425 C 1751.907 1119.439, 1714.587 1080.114, 1685 1048.504 C 1673.725 1036.459, 1655.950 1017.670, 1645.500 1006.753 C 1600.658 959.904, 1587.592 946.087, 1581.725 939.315 C 1578.301 935.363, 1575.275 932.113, 1575 932.093 C 1574.725 932.073, 1565.073 942.056, 1553.552 954.278 M 1375 1669.860 C 1375 1711.034, 1374.714 1746.809, 1374.364 1749.360 L 1373.728 1754 1453.864 1754 L 1534 1754 1534 1674.500 L 1534 1595 1454.500 1595 L 1375 1595 1375 1669.860 M 1614.667 1595.667 C 1614.300 1596.033, 1614 1631.808, 1614 1675.167 L 1614 1754 1694 1754 L 1774 1754 1774 1674.500 L 1774 1595 1694.667 1595 C 1651.033 1595, 1615.033 1595.300, 1614.667 1595.667 M 1966 1844.702 L 1966 1993.711 1959.250 1994.348 C 1955.537 1994.699, 1912.338 1994.989, 1863.250 1994.993 L 1774 1995 1773.997 1934.250 C 1773.996 1900.838, 1773.704 1865.175, 1773.348 1855 L 1772.702 1836.500 1752.601 1836.500 C 1741.545 1836.500, 1706.136 1836.098, 1673.914 1835.607 L 1615.327 1834.714 1614.664 1857.519 C 1614.299 1870.061, 1614 1906.125, 1614 1937.662 L 1614 1995 1584.656 1995 C 1568.516 1995, 1550.516 1994.707, 1544.656 1994.348 L 1534 1993.696 1534 1915.498 L 1534 1837.300 1522.250 1836.669 C 1501.867 1835.574, 1403.108 1834.678, 1388.756 1835.457 L 1375.012 1836.204 1374.756 1915.352 L 1374.500 1994.500 1315 1994.813 C 1282.275 1994.985, 1239.188 1994.820, 1219.250 1994.447 L 1183 1993.767 1182.961 1845.633 L 1182.922 1697.500 1171.622 1709.127 C 1165.407 1715.522, 1150.729 1731.272, 1139.005 1744.127 C 1127.281 1756.982, 1109.767 1775.825, 1100.086 1786 C 1076.913 1810.354, 1064.036 1824.335, 1042.664 1848.344 L 1025 1868.187 1025 1930.938 L 1025 1993.688 1009.800 1994.346 C 1001.440 1994.708, 974.327 1994.710, 949.550 1994.351 L 904.500 1993.699 888.002 2011.600 C 878.928 2021.445, 861.152 2040.525, 848.500 2054 C 810.964 2093.976, 782.769 2124.989, 769.065 2141.372 C 767.536 2143.200, 783.180 2143.235, 1449.099 2142.872 L 2130.698 2142.500 2131.549 2105.500 C 2132.434 2067.022, 2132.472 2036.634, 2131.864 1856.750 L 2131.500 1749.001 2074.843 1749 L 2018.186 1749 1992.093 1722.347 L 1966 1695.694 1966 1844.702" stroke="none" fill="#14244c" fill-rule="evenodd"/></svg>